<?xml version="1.0" encoding="UTF-8" standalone="no"?><svg xmlns="http://www.w3.org/2000/svg" xmlns:xlink="http://www.w3.org/1999/xlink" contentScriptType="application/ecmascript" contentStyleType="text/css" height="92px" preserveAspectRatio="none" style="width:423px;height:92px;" version="1.1" viewBox="0 0 423 92" width="423px" zoomAndPan="magnify"><defs><filter height="300%" id="faoiy8rz7xnnw" width="300%" x="-1" y="-1"><feGaussianBlur result="blurOut" stdDeviation="2.0"/><feColorMatrix in="blurOut" result="blurOut2" type="matrix" values="0 0 0 0 0 0 0 0 0 0 0 0 0 0 0 0 0 0 .4 0"/><feOffset dx="4.0" dy="4.0" in="blurOut2" result="blurOut3"/><feBlend in="SourceGraphic" in2="blurOut3" mode="normal"/></filter></defs><g><!--MD5=[c8fd84879b2483aa155af7122a30e70f]
class SongStyle--><rect fill="#FEFECE" filter="url(#faoiy8rz7xnnw)" height="73.6094" id="SongStyle" style="stroke: #A80036; stroke-width: 1.5;" width="170" x="6" y="8"/><ellipse cx="55.75" cy="24" fill="#B4A7E5" rx="11" ry="11" style="stroke: #A80036; stroke-width: 1.0;"/><path d="M51.6719,19.7656 L51.6719,17.6094 L59.0625,17.6094 L59.0625,19.7656 L56.5938,19.7656 L56.5938,27.8438 L59.0625,27.8438 L59.0625,30 L51.6719,30 L51.6719,27.8438 L54.1406,27.8438 L54.1406,19.7656 L51.6719,19.7656 Z "/><text fill="#000000" font-family="sans-serif" font-size="12" font-style="italic" lengthAdjust="spacingAndGlyphs" textLength="62" x="76.25" y="28.1543">SongStyle</text><line style="stroke: #A80036; stroke-width: 1.5;" x1="7" x2="175" y1="40" y2="40"/><line style="stroke: #A80036; stroke-width: 1.5;" x1="7" x2="175" y1="48" y2="48"/><ellipse cx="17" cy="59" fill="#84BE84" rx="3" ry="3" style="stroke: #038048; stroke-width: 1.0;"/><text fill="#000000" font-family="sans-serif" font-size="11" lengthAdjust="spacingAndGlyphs" textLength="114" x="26" y="62.2104">isSpecialLine(name)</text><ellipse cx="17" cy="71.8047" fill="#84BE84" rx="3" ry="3" style="stroke: #038048; stroke-width: 1.0;"/><text fill="#000000" font-family="sans-serif" font-size="11" lengthAdjust="spacingAndGlyphs" textLength="144" x="26" y="75.0151">specialLine(name): string</text><!--MD5=[cc69a90c4a4381ff92195121e2a1e87d]
class Lesson21--><rect fill="#FEFECE" filter="url(#faoiy8rz7xnnw)" height="60.8047" id="Lesson21" style="stroke: #A80036; stroke-width: 1.5;" width="201" x="211.5" y="14.5"/><ellipse cx="277.75" cy="30.5" fill="#ADD1B2" rx="11" ry="11" style="stroke: #A80036; stroke-width: 1.0;"/><path d="M280.7188,36.1406 Q280.1406,36.4375 279.5,36.5859 Q278.8594,36.7344 278.1563,36.7344 Q275.6563,36.7344 274.3359,35.0859 Q273.0156,33.4375 273.0156,30.3125 Q273.0156,27.1875 274.3359,25.5313 Q275.6563,23.875 278.1563,23.875 Q278.8594,23.875 279.5078,24.0313 Q280.1563,24.1875 280.7188,24.4844 L280.7188,27.2031 Q280.0938,26.625 279.5,26.3516 Q278.9063,26.0781 278.2813,26.0781 Q276.9375,26.0781 276.25,27.1484 Q275.5625,28.2188 275.5625,30.3125 Q275.5625,32.4063 276.25,33.4766 Q276.9375,34.5469 278.2813,34.5469 Q278.9063,34.5469 279.5,34.2734 Q280.0938,34 280.7188,33.4219 L280.7188,36.1406 Z "/><text fill="#000000" font-family="sans-serif" font-size="12" lengthAdjust="spacingAndGlyphs" textLength="60" x="298.25" y="34.6543">Lesson21</text><line style="stroke: #A80036; stroke-width: 1.5;" x1="212.5" x2="411.5" y1="46.5" y2="46.5"/><line style="stroke: #A80036; stroke-width: 1.5;" x1="212.5" x2="411.5" y1="54.5" y2="54.5"/><ellipse cx="222.5" cy="65.5" fill="#84BE84" rx="3" ry="3" style="stroke: #038048; stroke-width: 1.0;"/><text fill="#000000" font-family="sans-serif" font-size="11" lengthAdjust="spacingAndGlyphs" textLength="175" x="231.5" y="68.7104">singSong(namesm, songStyle)</text><!--MD5=[5ca9878e93de82c43e437d2bb5cc9a40]
@startuml
interface SongStyle {
  +isSpecialLine(name)
  +specialLine(name): string
}

class Lesson21 {
  +singSong(namesm, songStyle)
}
@enduml

PlantUML version 1.2019.12(Sun Nov 03 10:24:54 UTC 2019)
(GPL source distribution)
Java Runtime: OpenJDK Runtime Environment
JVM: OpenJDK 64-Bit Server VM
Java Version: 1.8.0_232-heroku-b09
Operating System: Linux
Default Encoding: UTF-8
Language: en
Country: US
--></g></svg>